<mxfile host="app.diagrams.net" modified="2020-09-13T01:12:57.707Z" agent="5.0 (Windows NT 10.0; Win64; x64) AppleWebKit/537.36 (KHTML, like Gecko) Chrome/85.0.4183.102 Safari/537.36" etag="4tER5cIxYIhuqwE2bpQw" version="13.6.9" type="github">
  <diagram id="CYZCeMSAnIOVuIHV3C61" name="Page-1">
    <mxGraphModel dx="1102" dy="582" grid="1" gridSize="10" guides="1" tooltips="1" connect="1" arrows="1" fold="1" page="1" pageScale="1" pageWidth="827" pageHeight="1169" math="0" shadow="0">
      <root>
        <mxCell id="0" />
        <mxCell id="1" parent="0" />
        <mxCell id="tmM-5zMfZz3KDJdVsudU-1" value="Airplane Controller" style="rounded=0;whiteSpace=wrap;html=1;fillColor=#d5e8d4;strokeColor=#82b366;" vertex="1" parent="1">
          <mxGeometry x="340" y="40" width="120" height="60" as="geometry" />
        </mxCell>
        <mxCell id="tmM-5zMfZz3KDJdVsudU-4" style="edgeStyle=orthogonalEdgeStyle;rounded=0;orthogonalLoop=1;jettySize=auto;html=1;" edge="1" parent="1" source="tmM-5zMfZz3KDJdVsudU-2" target="tmM-5zMfZz3KDJdVsudU-1">
          <mxGeometry relative="1" as="geometry" />
        </mxCell>
        <mxCell id="tmM-5zMfZz3KDJdVsudU-2" value="Airplane Engine" style="rounded=0;whiteSpace=wrap;html=1;" vertex="1" parent="1">
          <mxGeometry x="340" y="200" width="120" height="60" as="geometry" />
        </mxCell>
        <mxCell id="tmM-5zMfZz3KDJdVsudU-5" style="edgeStyle=orthogonalEdgeStyle;rounded=0;orthogonalLoop=1;jettySize=auto;html=1;entryX=0.25;entryY=1;entryDx=0;entryDy=0;" edge="1" parent="1" source="tmM-5zMfZz3KDJdVsudU-3" target="tmM-5zMfZz3KDJdVsudU-1">
          <mxGeometry relative="1" as="geometry">
            <Array as="points">
              <mxPoint x="250" y="160" />
              <mxPoint x="370" y="160" />
            </Array>
          </mxGeometry>
        </mxCell>
        <mxCell id="tmM-5zMfZz3KDJdVsudU-3" value="Airplane Wheels" style="rounded=0;whiteSpace=wrap;html=1;" vertex="1" parent="1">
          <mxGeometry x="190" y="200" width="120" height="60" as="geometry" />
        </mxCell>
        <mxCell id="tmM-5zMfZz3KDJdVsudU-7" style="edgeStyle=orthogonalEdgeStyle;rounded=0;orthogonalLoop=1;jettySize=auto;html=1;entryX=0.5;entryY=1;entryDx=0;entryDy=0;" edge="1" parent="1" source="tmM-5zMfZz3KDJdVsudU-6" target="tmM-5zMfZz3KDJdVsudU-2">
          <mxGeometry relative="1" as="geometry" />
        </mxCell>
        <mxCell id="tmM-5zMfZz3KDJdVsudU-6" value="Airplane Propeller" style="rounded=0;whiteSpace=wrap;html=1;" vertex="1" parent="1">
          <mxGeometry x="340" y="340" width="120" height="60" as="geometry" />
        </mxCell>
      </root>
    </mxGraphModel>
  </diagram>
</mxfile>
